<svg xmlns="http://www.w3.org/2000/svg" style="isolation:isolate" viewBox="0 0 24 23.593"><defs><clipPath id="a"><path d="M0 0h24v23.593H0z"/></clipPath></defs><g clip-path="url(#a)"><path fill="#232021" d="M14.383.015c1.393-.031 2.786-.002 4.18-.014 1.202.008 2.404-.008 3.606.007-.821.883-1.714 1.698-2.54 2.575.194.196.414.364.614.554a11.786 11.786 0 0 1 3.372 5.641 11.914 11.914 0 0 1-.08 6.301 11.78 11.78 0 0 1-3.964 5.928c-2.276 1.838-5.253 2.759-8.168 2.559 0-1.117.004-2.233-.002-3.35 1.195.071 2.412-.034 3.544-.442 2.068-.705 3.826-2.255 4.803-4.207a8.47 8.47 0 0 0 .811-5.005c-.317-2.197-1.541-4.265-3.348-5.56-.96.913-1.865 1.885-2.829 2.793.011-2.593.009-5.186.001-7.78zM4.511 2.766A11.75 11.75 0 0 1 11.245.262c.281-.003.57-.052.847.021-.01 1.1-.011 2.2 0 3.3-.99.012-1.988.116-2.928.444-2.002.65-3.727 2.092-4.746 3.931a8.424 8.424 0 0 0 1.878 10.493c.213-.148.373-.354.559-.53.781-.771 1.543-1.561 2.334-2.321-.007 2.594-.004 5.187-.002 7.781-2.594.024-5.19.009-7.786.007.821-.856 1.676-1.68 2.511-2.523a4.708 4.708 0 0 0-.112-.129 11.774 11.774 0 0 1-3.468-5.894 11.904 11.904 0 0 1 .119-6.035 11.807 11.807 0 0 1 4.06-6.041z"/></g></svg>
