<svg id="master-artboard" viewBox="0 0 80 80" version="1.1" xmlns="http://www.w3.org/2000/svg" x="0px" y="0px" style="enable-background:new 0 0 336 235.2;" width="80px" height="80px">
	<rect id="ee-background" x="0" y="0" width="80" height="80" style="fill: white; fill-opacity: 0; pointer-events: none;"/>
	<defs>
		<style id="ee-google-fonts">@import url(https://fonts.googleapis.com/css?family=Audiowide:400);</style>
		<linearGradient x1="0" y1="0" x2="0" y2="0" gradientUnits="userSpaceOnUse" id="color-1">
			<stop offset="0" stop-color="#000000" stop-opacity="0"/>
			<stop offset="1" stop-color="#000000" stop-opacity="0"/>
		</linearGradient>
		<filter id="dropshadow-base">
			<feColorMatrix type="matrix" values="0 0 0 0 0  0 0 0 0 0  0 0 0 0 0  0 0 0 .8 0"/> 
			<feOffset dx="0" dy="1"/> 
			<feGaussianBlur stdDeviation="1"/> 
			<feComposite in="SourceGraphic"/>
		</filter>
		<filter id="dropshadow-banner" x="-10%" y="-10%" width="120%" height="130%">
			<feColorMatrix type="matrix" values="0 0 0 0 0  0 0 0 0 0  0 0 0 0 0  0 0 0 .4 0"/> 
			<feOffset dx="0" dy="1"/> 
			<feGaussianBlur stdDeviation="0.5"/> 
			<feComposite in="SourceGraphic"/>
		</filter>
	</defs>
	<g transform="matrix(1.8127284320135602, 0, 0, 1.811854600906372, -3.5489268843213098, -3.5120863914489746)">
		<g fill="none" fill-rule="nonzero" stroke="none" stroke-width="none" stroke-linecap="butt" stroke-linejoin="miter" stroke-miterlimit="10" stroke-dasharray="" stroke-dashoffset="0" font-family="none" font-weight="none" font-size="none" text-anchor="none" style="mix-blend-mode: normal">
			<path d="M2,24c0,-12.15026 9.84974,-22 22,-22c12.15026,0 22,9.84974 22,22c0,12.15026 -9.84974,22 -22,22c-12.15026,0 -22,-9.84974 -22,-22z" id="base 1 5" fill="#bdc1c6" stroke-width="1"/>
			<path d="M48.66998,42.14173h-14.24345l-19.32868,-19.32868v-2.37391h14.24345l19.32868,19.32868zM48.66998,35.02v2.37391l-19.32868,-19.32868v-2.37391zM15.09784,27.56086v-2.37391l19.32868,19.32868v2.37391z" fill="url(#color-1)" stroke-width="1"/>
			<path d="M15.09784,20.43914h14.24345v2.37391h-14.24345zM15.09784,15.69132h14.24345v2.37391h-14.24345zM15.09784,25.18695h9.49564v2.37391h-9.49564zM32.90216,28.74782l-5.93477,3.56086v-7.12173z" fill="none" stroke-width="0"/>
			<path d="M15.09784,20.43914h14.24345v2.37391h-14.24345zM15.09784,15.69132h14.24345v2.37391h-14.24345zM15.09784,25.18695h9.49564v2.37391h-9.49564zM32.90216,28.74782l-5.93477,3.56086v-7.12173z" fill="#ffffff" stroke-width="0"/>
			<path d="M2,24c0,-12.15026 9.84974,-22 22,-22c12.15026,0 22,9.84974 22,22c0,12.15026 -9.84974,22 -22,22c-12.15026,0 -22,-9.84974 -22,-22z" id="base 1 1 1" fill="none" stroke-width="1"/><g fill="#000000" stroke-width="1" font-family="Roboto, sans-serif" font-weight="400" font-size="14" text-anchor="start"/>
			<path d="M 2 2 H 46 V 24 H 2 V 2 Z" fill="none" stroke-width="1"/><path d="M2,24v-22h44v22z" fill="none" stroke-width="1"/>
			<path d="M2,24v-22h44v22z" fill="none" stroke-width="1"/><path d="M2,24v-22h44v22z" fill="none" stroke-width="1"/>
			<path d="M2,24v-22h44v22z" fill="none" stroke-width="1"/>
		</g>
	</g>
</svg>
