<?xml version="1.0" encoding="iso-8859-1"?>
<!-- Generator: Adobe Illustrator 19.0.0, SVG Export Plug-In . SVG Version: 6.00 Build 0)  -->
<svg version="1.1" id="Capa_1" xmlns="http://www.w3.org/2000/svg" xmlns:xlink="http://www.w3.org/1999/xlink" x="0px" y="0px"
	 viewBox="0 0 490 490" style="enable-background:new 0 0 490 490;" xml:space="preserve">
<g>
	<g>
		<path d="M273.6,4.493l-173.6,127H20.8c-11.4,0-20.8,9.4-20.8,20.8v185.2c0,11.4,9.4,20.8,20.8,20.8h80.6l172.3,126.9
			c8.5,8.5,33.3,4.2,33.3-15.6v-448.4C306.9,0.793,282.8-3.607,273.6,4.493z M86.3,317.693H40.6v-145.7h45.8v145.7H86.3z
			 M265.3,428.993L129,328.893v-168l136.3-100.2V428.993z"/>
		<path d="M436.9,108.593c-8.3-8.3-20.8-8.3-29.1-1c-8.3,8.3-8.3,20.8-1,29.1c56.2,60.3,56.2,157.1,0,216.4
			c-7.3,8.3-7.3,21.8,1,29.1c7,7,20.5,7.5,29.1-2.1C507.7,305.193,507.7,183.493,436.9,108.593z"/>
		<path d="M375.6,173.093c-8.3-8.3-20.8-8.3-29.1-1c-8.3,8.3-8.3,20.8,0,29.1c22.9,23.9,22.9,63.5,0,87.4c-7.3,8.3-7.3,21.8,1,29.1
			c5.4,5.4,18.4,8.6,28.1-1C414.1,278.093,413,212.593,375.6,173.093z"/>
	</g>
</g>
</svg>
