<svg id="master-artboard" viewBox="0 0 80 80" xmlns="http://www.w3.org/2000/svg" width="80px" height="80px" version="1.1" style="shape-rendering:geometricPrecision; text-rendering:geometricPrecision; image-rendering:optimizeQuality; fill-rule:evenodd; clip-rule:evenodd">
	<defs>
		<linearGradient x1="0" y1="0" x2="0" y2="0" gradientUnits="userSpaceOnUse" id="color-1">
			<stop offset="1" stop-color="#000000" stop-opacity="0"/>
			<stop offset="1" stop-color="#000000" stop-opacity="0"/>
		</linearGradient>
		<filter id="dropshadow-base">
			<feColorMatrix type="matrix" values="0 0 0 0 0  0 0 0 0 0  0 0 0 0 0  0 0 0 .8 0"/> 
			<feOffset dx="0" dy="1"/> 
			<feGaussianBlur stdDeviation="1"/> 
			<feComposite in="SourceGraphic"/>
		</filter>
		<filter id="dropshadow-banner" x="-10%" y="-10%" width="120%" height="130%">
			<feColorMatrix type="matrix" values="0 0 0 0 0  0 0 0 0 0  0 0 0 0 0  0 0 0 .4 0"/> 
			<feOffset dx="0" dy="1"/> 
			<feGaussianBlur stdDeviation="0.5"/> 
			<feComposite in="SourceGraphic"/>
		</filter>
	</defs>
	<rect id="ee-background" x="0" y="0" width="80" height="80" style="fill: white; fill-opacity: 0; pointer-events: none;"/>
	<metadata id="CorelCorpID_0Corel-Layer"/>
	<g transform="matrix(1.8181819915771487, 0, 0, 1.8181819915771487, -3.780379295349121, -3.6793244679768904)">
		<g fill="none" fill-rule="nonzero" stroke="none" stroke-width="none" stroke-linecap="butt" stroke-linejoin="miter" stroke-miterlimit="10" stroke-dasharray="" stroke-dashoffset="0" font-family="none" font-weight="none" font-size="none" text-anchor="none" style="mix-blend-mode: normal">
			<path d="M2,24c0,-12.15026 9.84974,-22 22,-22c12.15026,0 22,9.84974 22,22c0,12.15026 -9.84974,22 -22,22c-12.15026,0 -22,-9.84974 -22,-22z" id="base 1 5" fill="#bdc1c6" stroke-width="1"/>
			<path d="" fill="url(#color-1)" stroke-width="1"/>
			<path d="M28.65243,30.28078v3.02408h-9.30486v-3.02408c0,-1.28407 2.08429,-2.32622 4.65243,-2.32622c2.56814,0 4.65243,1.04214 4.65243,2.32622zM24,18.41708c3.34031,0 6.04816,2.70785 6.04816,6.04816c0,1.16311 -0.32567,2.25178 -0.89327,3.17296l-1.43295,-1.27477c0.29776,-0.5676 0.46524,-1.21894 0.46524,-1.89819c0,-2.32622 -1.86097,-4.18719 -4.18719,-4.18719c-2.32622,0 -4.18719,1.86097 -4.18719,4.18719c0,0.67926 0.16749,1.3306 0.46524,1.89819l-1.43295,1.27477c-0.5676,-0.92118 -0.89327,-2.00985 -0.89327,-3.17296c0,-3.34031 2.70785,-6.04816 6.04816,-6.04816zM24,14.69514c5.39588,0 9.77011,4.37423 9.77011,9.77011c0,2.12151 -0.67926,4.08484 -1.82375,5.68527l-1.39573,-1.25616c0.85605,-1.26546 1.35851,-2.79146 1.35851,-4.42912c0,-4.36809 -3.54104,-7.90913 -7.90913,-7.90913c-4.36809,0 -7.90913,3.54104 -7.90913,7.90913c0,1.63766 0.50246,3.16365 1.35851,4.42912l-1.39573,1.25616c-1.18779,-1.65759 -1.82566,-3.64604 -1.82375,-5.68527c0,-5.39588 4.37423,-9.77011 9.77011,-9.77011zM24,22.13903c1.28473,0 2.32622,1.04148 2.32622,2.32622c0,1.28473 -1.04148,2.32622 -2.32622,2.32622c-1.28473,0 -2.32622,-1.04148 -2.32622,-2.32622c0,-1.28473 1.04148,-2.32622 2.32622,-2.32622z" fill="none" stroke-width="0"/>
			<path d="M28.65243,33.30486h-9.30486v-3.02408c0,-1.28407 2.08429,-2.32622 4.65243,-2.32622c2.56814,0 4.65243,1.04214 4.65243,2.32622zM30.04816,24.46524c0,1.16311 -0.32567,2.25178 -0.89327,3.17296l-1.43295,-1.27477c0.29776,-0.5676 0.46524,-1.21894 0.46524,-1.89819c0,-2.32622 -1.86097,-4.18719 -4.18719,-4.18719c-2.32622,0 -4.18719,1.86097 -4.18719,4.18719c0,0.67926 0.16749,1.3306 0.46524,1.89819l-1.43295,1.27477c-0.5676,-0.92118 -0.89327,-2.00985 -0.89327,-3.17296c0,-3.34031 2.70785,-6.04816 6.04816,-6.04816c3.34031,0 6.04816,2.70785 6.04816,6.04816zM33.77011,24.46524c0,2.12151 -0.67926,4.08484 -1.82375,5.68527l-1.39573,-1.25616c0.85605,-1.26546 1.35851,-2.79146 1.35851,-4.42912c0,-4.36809 -3.54104,-7.90913 -7.90913,-7.90913c-4.36809,0 -7.90913,3.54104 -7.90913,7.90913c0,1.63766 0.50246,3.16365 1.35851,4.42912l-1.39573,1.25616c-1.18779,-1.65759 -1.82566,-3.64604 -1.82375,-5.68527c0,-5.39588 4.37423,-9.77011 9.77011,-9.77011c5.39588,0 9.77011,4.37423 9.77011,9.77011zM24,22.13903c1.28473,0 2.32622,1.04148 2.32622,2.32622c0,1.28473 -1.04148,2.32622 -2.32622,2.32622c-1.28473,0 -2.32622,-1.04148 -2.32622,-2.32622c0,-1.28473 1.04148,-2.32622 2.32622,-2.32622z" fill="#ffffff" stroke-width="0"/>
			<path d="M2,24c0,-12.15026 9.84974,-22 22,-22c12.15026,0 22,9.84974 22,22c0,12.15026 -9.84974,22 -22,22c-12.15026,0 -22,-9.84974 -22,-22z" id="base 1 1 1" fill="none" stroke-width="1"/>
			<g fill="#000000" stroke-width="1" font-family="Roboto, sans-serif" font-weight="400" font-size="14" text-anchor="start"/>
			<path d="M 2 2 H 46 V 24 H 2 V 2 Z" fill="none" stroke-width="1"/>
			<path d="M2,24v-22h44v22z" fill="none" stroke-width="1"/><path d="M2,24v-22h44v22z" fill="none" stroke-width="1"/>
			<path d="M2,24v-22h44v22z" fill="none" stroke-width="1"/><path d="M2,24v-22h44v22z" fill="none" stroke-width="1"/>
		</g>
	</g>
</svg>
